<svg xmlns="http://www.w3.org/2000/svg">

  <symbol id="arrow-left" viewBox="0 0 32 55" fill-rule="evenodd">
      <polygon points="8.36469681 27.3313616 31.4413538 4.24141965 27.1974925 0 3.55271368e-15 27.2131497 0.120043112 27.3331237 0.000610342903 27.4525565 27.1981028 54.650049 31.4407435 50.4074083 8.36469681 27.3313616"></polygon>
  </symbol>

  <symbol id="arrow-right" viewBox="0 0 32 55" fill-rule="evenodd">
      <polygon points="23.076657 27.3313616 3.55271368e-15 4.24141965 4.24386137 0 31.4413538 27.2131497 31.3213107 27.3331237 31.4407435 27.4525565 4.24325103 54.650049 0.000610342903 50.4074083 23.076657 27.3313616"></polygon>
  </symbol>

  <symbol id="cross" viewBox="0 0 54 54" fill-rule="evenodd">
      <path d="M22.987436,26.7656007 L0.611340315,49.1416964 L4.853981,53.3843371 L27.2300767,31.0082414 L49.6061724,53.3843371 L53.8488131,49.1416964 L31.4727174,26.7656007 L53.8488131,4.38950503 L49.6061724,0.146864341 L27.2300767,22.52296 L4.853981,0.146864341 L0.611340315,4.38950503 L22.987436,26.7656007 Z"></path>
  </symbol>

  <symbol id="menu" viewBox="0 0 46 54" fill-rule="evenodd">
      <path d="M0.398572198,7.5187598 L0.398572198,0.518759796 L45.6633906,0.518759796 L45.6633906,7.5187598 L0.398572198,7.5187598 Z M0.398572198,30.5187598 L0.398572198,23.5187598 L45.6633906,23.5187598 L45.6633906,30.5187598 L0.398572198,30.5187598 Z M0.398572198,53.5187598 L0.398572198,46.5187598 L45.6633906,46.5187598 L45.6633906,53.5187598 L0.398572198,53.5187598 Z"></path>
  </symbol>

  <symbol id="menu-dots" viewBox="0 0 15 54" fill-rule="evenodd">
      <path d="M7.50976562,14 C3.64377238,14 0.509765625,10.8659932 0.509765625,7 C0.509765625,3.13400675 3.64377238,0 7.50976562,0 C11.3757589,0 14.5097656,3.13400675 14.5097656,7 C14.5097656,10.8659932 11.3757589,14 7.50976562,14 Z M7.50976562,34 C3.64377238,34 0.509765625,30.8659932 0.509765625,27 C0.509765625,23.1340068 3.64377238,20 7.50976562,20 C11.3757589,20 14.5097656,23.1340068 14.5097656,27 C14.5097656,30.8659932 11.3757589,34 7.50976562,34 Z M7.50976562,54 C3.64377238,54 0.509765625,50.8659932 0.509765625,47 C0.509765625,43.1340068 3.64377238,40 7.50976562,40 C11.3757589,40 14.5097656,43.1340068 14.5097656,47 C14.5097656,50.8659932 11.3757589,54 7.50976562,54 Z"></path>
  </symbol>

</svg>